<?xml version="1.0" standalone="no"?>
<!DOCTYPE svg PUBLIC "-//W3C//DTD SVG 20010904//EN"
 "http://www.w3.org/TR/2001/REC-SVG-20010904/DTD/svg10.dtd">
<svg version="1.0" xmlns="http://www.w3.org/2000/svg"
 width="1202.000000pt" height="1202.000000pt" viewBox="0 0 1202.000000 1202.000000"
 preserveAspectRatio="xMidYMid meet">
<metadata>
Created by potrace 1.14, written by Peter Selinger 2001-2017
</metadata>
<g transform="translate(0.000000,1202.000000) scale(0.100000,-0.100000)"
fill="#000000" stroke="none">
<path d="M5655 12015 c-5 -2 -71 -8 -145 -14 -353 -30 -669 -84 -1020 -177
-146 -38 -176 -47 -208 -60 -18 -8 -42 -14 -53 -14 -11 0 -30 -5 -42 -12 -12
-6 -35 -15 -52 -19 -43 -10 -96 -29 -127 -45 -14 -8 -33 -14 -42 -14 -9 0 -24
-4 -34 -10 -9 -5 -60 -26 -112 -46 -159 -61 -213 -85 -450 -203 -232 -115
-402 -208 -408 -223 -2 -4 -8 -8 -13 -8 -5 0 -28 -12 -52 -27 -57 -38 -79 -51
-97 -60 -8 -4 -19 -11 -25 -15 -5 -4 -55 -38 -110 -74 -55 -37 -116 -79 -136
-95 -20 -16 -42 -29 -48 -29 -6 0 -11 -4 -11 -9 0 -5 -20 -22 -45 -38 -25 -15
-45 -31 -45 -35 0 -5 -7 -8 -15 -8 -8 0 -15 -4 -15 -8 0 -5 -27 -28 -60 -52
-33 -24 -60 -47 -60 -52 0 -4 -5 -8 -10 -8 -6 0 -21 -10 -33 -22 -12 -13 -51
-48 -87 -78 -114 -95 -317 -292 -483 -467 -78 -83 -119 -130 -192 -217 -22
-27 -48 -58 -59 -70 -41 -47 -256 -336 -256 -345 0 -5 -3 -11 -8 -13 -11 -4
-69 -89 -132 -191 -30 -48 -63 -100 -72 -115 -10 -15 -22 -36 -27 -47 -5 -11
-21 -37 -35 -58 -14 -21 -26 -42 -26 -47 0 -5 -6 -15 -12 -22 -7 -7 -42 -71
-78 -143 -36 -71 -71 -136 -77 -143 -7 -7 -13 -19 -13 -25 0 -6 -22 -57 -49
-112 -74 -151 -111 -233 -111 -249 0 -8 -4 -17 -9 -20 -5 -3 -12 -18 -15 -33
-4 -16 -13 -41 -21 -58 -8 -16 -28 -70 -45 -120 -17 -49 -37 -106 -44 -125 -8
-19 -28 -82 -45 -140 -17 -58 -38 -125 -45 -150 -65 -216 -120 -486 -176 -863
-6 -42 -15 -128 -20 -190 -5 -61 -14 -177 -21 -257 -13 -164 -7 -626 10 -810
35 -363 81 -649 147 -922 32 -131 46 -185 56 -213 5 -16 13 -46 17 -65 4 -19
13 -51 19 -70 7 -19 28 -82 47 -140 19 -58 44 -130 55 -160 12 -30 25 -66 30
-80 16 -47 47 -125 89 -225 48 -111 251 -527 262 -535 4 -3 13 -17 19 -30 5
-14 19 -38 30 -55 11 -16 23 -37 27 -45 24 -47 78 -135 85 -138 4 -2 8 -8 8
-14 0 -5 27 -50 60 -100 33 -49 60 -91 60 -94 0 -3 5 -10 10 -17 6 -7 33 -43
60 -82 27 -38 56 -78 64 -87 9 -10 16 -22 16 -28 0 -5 3 -10 8 -10 4 0 20 -20
35 -45 16 -25 33 -45 38 -45 5 0 9 -7 9 -15 0 -8 4 -15 8 -15 5 0 23 -21 41
-46 18 -25 43 -56 55 -69 11 -12 39 -44 61 -71 77 -93 121 -140 330 -350 199
-200 233 -233 349 -329 27 -22 59 -50 71 -61 13 -12 44 -37 69 -55 25 -18 46
-36 46 -41 0 -4 7 -8 15 -8 8 0 15 -4 15 -9 0 -5 20 -22 45 -38 25 -15 45 -31
45 -35 0 -5 5 -8 10 -8 6 0 18 -7 28 -16 9 -8 49 -37 87 -64 39 -27 75 -54 82
-60 7 -5 14 -10 17 -10 3 0 45 -27 94 -60 50 -33 95 -60 101 -60 6 0 11 -4 11
-9 0 -5 13 -14 30 -21 16 -7 30 -15 30 -19 0 -3 20 -15 45 -26 25 -11 45 -23
45 -26 0 -4 12 -12 28 -18 36 -16 86 -42 92 -51 9 -11 430 -217 535 -261 100
-42 179 -73 225 -89 14 -5 50 -18 80 -30 128 -49 370 -124 530 -165 533 -136
967 -190 1520 -190 420 0 707 26 1120 101 289 52 690 162 930 254 30 12 66 25
80 30 63 22 112 41 128 49 9 5 42 19 72 31 118 47 447 208 565 275 33 19 69
39 80 45 21 10 32 17 100 60 22 14 47 29 55 33 8 4 27 15 42 25 29 18 151 95
182 115 11 7 25 16 30 20 6 4 43 30 81 58 39 27 78 56 88 64 9 8 22 15 27 15
6 0 10 4 10 9 0 5 20 22 45 38 25 15 45 31 45 36 0 4 7 7 15 7 8 0 15 4 15 8
0 5 21 23 46 41 25 18 56 43 69 55 12 11 34 30 46 41 13 11 60 52 104 90 105
90 433 418 521 520 38 44 79 91 91 105 12 14 32 36 43 50 12 14 43 52 68 85
26 33 52 66 58 72 7 7 22 28 34 48 12 19 26 35 31 35 5 0 9 6 9 14 0 8 4 16 8
18 4 2 34 41 67 88 32 47 61 87 65 90 3 3 10 14 17 25 14 24 91 145 115 183
10 15 21 34 25 42 4 8 20 34 35 56 15 23 28 44 28 47 0 4 61 113 99 177 38 63
211 421 251 520 12 30 28 69 35 85 8 17 17 42 20 58 4 15 11 30 16 33 5 3 9
15 9 28 0 12 4 26 9 32 6 5 33 79 60 164 28 85 56 169 62 185 6 17 15 48 20
70 5 22 18 72 30 110 11 39 24 88 28 110 10 51 29 125 47 191 8 28 14 63 14
78 0 15 7 55 15 89 25 108 75 464 75 532 l-1 50 -52 -105 c-61 -122 -108 -204
-119 -208 -4 -2 -8 -7 -8 -12 0 -13 -122 -194 -137 -203 -7 -4 -13 -14 -13
-22 0 -7 -3 -15 -7 -17 -5 -1 -26 -25 -47 -53 -22 -27 -52 -62 -68 -77 -15
-15 -28 -29 -28 -32 0 -8 -191 -191 -262 -251 -108 -92 -334 -247 -423 -290
-22 -11 -42 -23 -45 -26 -7 -9 -181 -89 -270 -124 -25 -10 -58 -23 -75 -30
-16 -7 -57 -21 -90 -30 -149 -43 -142 -38 -209 -170 -34 -66 -63 -122 -66
-125 -11 -10 -80 -132 -80 -141 0 -5 -4 -9 -8 -9 -5 0 -14 -11 -20 -24 -18
-40 -136 -216 -144 -216 -4 0 -8 -5 -8 -10 0 -6 -5 -16 -10 -23 -6 -7 -41 -52
-78 -102 -37 -49 -77 -101 -89 -115 -11 -14 -52 -61 -90 -105 -101 -120 -137
-158 -254 -274 -114 -114 -129 -127 -229 -211 -36 -30 -75 -65 -87 -77 -12
-13 -26 -23 -32 -23 -5 0 -11 -4 -13 -9 -4 -12 -215 -171 -227 -171 -5 0 -11
-4 -13 -8 -4 -12 -153 -112 -166 -112 -6 0 -12 -3 -14 -7 -4 -10 -65 -53 -74
-53 -3 0 -26 -13 -51 -30 -24 -16 -48 -30 -53 -30 -5 0 -15 -6 -22 -13 -13
-13 -439 -227 -452 -227 -7 0 -73 -29 -130 -56 -16 -8 -36 -14 -46 -14 -9 0
-20 -4 -25 -9 -10 -9 -265 -96 -375 -127 -139 -39 -244 -65 -285 -71 -16 -2
-59 -10 -95 -18 -86 -18 -224 -40 -390 -62 -194 -25 -806 -25 -1000 0 -212 28
-388 57 -520 89 -25 6 -63 14 -85 18 -22 4 -67 15 -100 25 -33 9 -80 23 -105
30 -58 16 -306 99 -345 115 -16 7 -43 18 -60 25 -16 7 -59 25 -95 40 -75 31
-217 97 -275 128 -22 11 -78 41 -125 65 -47 24 -98 52 -115 63 -16 10 -39 23
-50 29 -11 6 -33 19 -50 30 -16 11 -36 23 -44 26 -55 27 -422 290 -447 320 -6
8 -16 14 -23 14 -6 0 -11 4 -11 8 0 4 -21 24 -48 44 -26 20 -69 57 -96 82 -26
25 -50 46 -51 46 -5 0 -295 290 -295 294 0 2 -21 26 -46 52 -25 27 -62 70 -82
96 -20 27 -40 48 -44 48 -4 0 -8 7 -8 15 0 8 -4 15 -8 15 -5 0 -28 27 -52 60
-24 33 -47 60 -52 60 -4 0 -8 5 -8 11 0 6 -19 36 -43 67 -60 79 -197 288 -197
301 0 6 -4 11 -9 11 -5 0 -14 14 -20 30 -5 17 -15 30 -20 30 -6 0 -11 9 -11
19 0 11 -4 22 -9 25 -9 6 -56 93 -124 231 -67 137 -94 197 -137 300 -23 55
-45 109 -50 120 -69 163 -168 507 -215 755 -9 47 -20 105 -26 130 -5 25 -14
92 -20 149 -5 58 -12 108 -15 113 -8 13 -24 341 -24 508 -2 369 33 680 116
1055 31 139 95 361 121 422 7 17 13 35 13 41 0 5 9 34 21 63 12 30 28 72 36
94 9 22 22 54 29 72 8 17 14 34 14 37 0 9 56 127 142 301 95 192 125 246 201
367 32 51 63 102 70 113 7 11 30 44 53 75 22 30 50 71 62 90 12 19 33 48 47
64 14 16 25 32 25 35 0 3 14 20 30 38 17 18 30 37 30 42 0 6 4 11 8 11 4 0 24
21 45 48 134 174 499 538 643 641 19 13 34 28 34 33 0 4 7 8 15 8 8 0 15 4 15
8 0 5 43 40 96 78 53 38 102 75 109 82 8 6 16 12 20 12 8 0 69 43 73 53 2 4 8
7 13 7 11 0 72 42 77 53 2 4 8 7 13 7 5 0 28 12 52 27 62 41 71 46 124 73 26
14 50 27 53 31 17 19 307 158 465 224 50 21 105 44 124 52 18 8 45 19 60 23
14 5 51 18 81 30 30 12 71 25 90 30 19 4 46 12 60 17 55 23 300 86 450 116
230 48 438 73 720 88 193 10 261 10 480 -4 140 -9 287 -22 325 -27 244 -37
370 -61 461 -86 28 -8 59 -14 70 -14 10 0 36 -6 59 -14 22 -8 69 -22 105 -31
36 -9 76 -22 90 -27 14 -6 39 -14 55 -18 56 -15 163 -55 300 -111 11 -4 48
-20 83 -34 114 -47 280 -126 377 -180 33 -18 83 -45 110 -60 57 -30 73 -39
132 -78 24 -15 47 -27 53 -27 5 0 10 -4 10 -8 0 -5 10 -14 23 -19 12 -6 42
-28 66 -50 47 -40 229 -221 271 -269 69 -78 210 -282 210 -303 0 -6 4 -11 9
-11 5 0 15 -15 21 -34 6 -19 14 -36 18 -38 14 -6 108 -216 146 -328 49 -140
68 -222 101 -415 20 -121 20 -463 0 -594 -30 -189 -91 -414 -146 -538 -39 -87
-129 -267 -149 -298 -11 -16 -23 -37 -27 -45 -3 -8 -19 -31 -35 -51 -15 -20
-28 -40 -28 -43 0 -11 -74 -106 -82 -106 -4 0 -8 -4 -8 -9 0 -17 -146 -172
-258 -273 -76 -69 -227 -180 -317 -235 -21 -13 -296 -149 -330 -163 -36 -16
-199 -68 -275 -89 -217 -58 -467 -80 -690 -61 -83 7 -152 11 -154 9 -8 -8 76
-293 103 -354 5 -11 19 -45 31 -75 12 -30 38 -87 57 -127 31 -66 37 -73 71
-79 63 -12 530 3 637 21 171 28 306 57 480 105 63 17 220 73 229 81 6 5 18 9
27 9 10 0 30 7 46 15 15 8 93 46 173 85 80 38 168 83 195 100 28 16 57 33 65
37 30 14 205 135 208 144 2 5 10 9 17 9 7 0 15 4 17 8 2 4 24 23 51 42 26 18
47 37 47 42 0 4 6 8 14 8 8 0 16 4 18 8 2 5 41 42 88 82 99 87 173 160 272
273 39 45 75 84 80 85 4 2 8 10 8 18 0 8 3 14 8 14 4 0 21 20 37 45 17 24 33
45 38 45 4 0 7 7 7 15 0 8 4 15 8 15 5 0 35 41 68 91 82 126 90 138 116 189
13 25 26 47 29 50 14 12 146 298 184 400 9 25 23 60 31 78 8 18 14 38 14 45 0
6 9 34 19 62 11 27 26 77 34 110 9 33 22 87 31 120 19 75 41 206 61 352 21
153 20 594 0 746 -25 182 -57 348 -89 457 -38 130 -60 198 -72 222 -8 14 -14
33 -14 41 0 15 -21 66 -66 165 -13 29 -24 56 -24 60 0 9 -73 151 -114 222 -14
25 -30 54 -36 65 -6 11 -18 32 -28 47 -9 15 -37 58 -61 97 -24 39 -47 71 -52
71 -5 0 -9 5 -9 11 0 8 -111 163 -129 179 -3 3 -31 34 -61 70 -72 86 -247 260
-335 334 -38 32 -71 63 -73 67 -2 5 -10 9 -17 9 -7 0 -15 7 -19 15 -3 8 -12
15 -20 15 -8 0 -16 4 -18 8 -3 9 -142 104 -168 116 -8 3 -28 15 -45 26 -16 11
-39 24 -50 30 -11 6 -56 30 -100 55 -140 78 -446 226 -590 285 -44 18 -94 39
-112 46 -17 8 -34 14 -38 14 -4 0 -21 6 -38 14 -18 8 -41 16 -52 19 -11 3 -45
15 -75 27 -30 12 -68 25 -85 30 -16 5 -46 14 -65 20 -73 25 -96 32 -125 40
-16 4 -66 18 -110 30 -44 12 -96 26 -115 30 -33 7 -66 15 -190 45 -98 24 -343
66 -515 89 -284 36 -459 46 -800 45 -187 0 -344 -2 -350 -4z"/>
<path d="M6004 8798 c4 -13 11 -111 17 -218 30 -540 -19 -1051 -147 -1555 -34
-131 -118 -395 -164 -515 -12 -30 -26 -69 -31 -87 -5 -18 -14 -35 -19 -38 -6
-4 -10 -13 -10 -21 0 -23 -234 -512 -251 -524 -4 -3 -13 -17 -19 -30 -5 -14
-19 -38 -30 -55 -11 -16 -23 -37 -27 -45 -3 -8 -26 -45 -50 -82 -24 -37 -43
-70 -43 -73 0 -4 -6 -13 -12 -20 -7 -7 -29 -37 -48 -65 -141 -208 -376 -497
-527 -648 -46 -46 -83 -87 -83 -92 0 -6 -4 -10 -10 -10 -5 0 -36 -26 -67 -58
-49 -49 -123 -116 -242 -217 -13 -11 -29 -25 -36 -32 -18 -18 -295 -223 -354
-263 -29 -19 -58 -39 -64 -45 -7 -5 -32 -21 -57 -34 -25 -14 -47 -28 -50 -31
-3 -4 -25 -18 -49 -31 -52 -29 -68 -38 -101 -61 l-24 -18 53 -102 c51 -100
189 -338 201 -348 3 -3 17 -23 30 -45 13 -22 28 -44 33 -50 4 -5 28 -38 54
-73 34 -47 50 -61 62 -56 9 3 34 10 56 15 41 8 138 39 285 91 81 28 101 36
180 71 38 16 296 143 320 157 78 45 225 134 265 161 74 50 270 200 273 210 2
5 10 9 17 9 7 0 15 4 17 8 2 5 40 41 86 81 116 102 259 249 347 355 22 27 46
55 54 63 8 8 43 54 78 101 35 48 71 95 79 105 8 9 14 20 14 23 0 3 8 16 18 29
20 26 30 41 75 111 19 28 37 57 41 65 4 8 22 41 41 74 75 133 195 385 195 409
0 8 4 17 9 20 5 3 12 18 16 33 3 16 12 42 19 58 18 44 37 96 46 130 4 17 12
41 18 55 14 35 63 225 86 335 118 573 96 1180 -61 1725 -28 98 -46 154 -59
190 -30 86 -77 208 -89 235 -7 17 -23 53 -35 80 -69 158 -203 399 -286 515
-39 55 -50 62 -40 28z"/>
</g>
</svg>
